<mxfile host="Electron" modified="2024-07-18T19:42:35.933Z" agent="Mozilla/5.0 (Windows NT 10.0; Win64; x64) AppleWebKit/537.36 (KHTML, like Gecko) draw.io/24.6.4 Chrome/124.0.6367.207 Electron/30.0.6 Safari/537.36" etag="x1Py9rp-1RqX6OZfYvoN" version="24.6.4" type="device">
  <diagram name="Seite-1" id="8udzMbejJx4fgqFfNixB">
    <mxGraphModel dx="1185" dy="684" grid="1" gridSize="10" guides="1" tooltips="1" connect="1" arrows="1" fold="1" page="1" pageScale="1" pageWidth="827" pageHeight="1169" math="0" shadow="0">
      <root>
        <mxCell id="0" />
        <mxCell id="1" parent="0" />
        <mxCell id="Bn2o-F2bhLCTl_N0Lpy1-5" value="UI" style="swimlane;horizontal=0;whiteSpace=wrap;html=1;" vertex="1" parent="1">
          <mxGeometry x="40" y="40" width="1880" height="510" as="geometry" />
        </mxCell>
        <mxCell id="Bn2o-F2bhLCTl_N0Lpy1-4" value="IDE&lt;div&gt;UI&lt;/div&gt;" style="rounded=0;whiteSpace=wrap;html=1;" vertex="1" parent="Bn2o-F2bhLCTl_N0Lpy1-5">
          <mxGeometry x="272.10526315789474" y="178.5" width="296.84210526315786" height="153" as="geometry" />
        </mxCell>
        <mxCell id="Bn2o-F2bhLCTl_N0Lpy1-6" value="Emulator UI Components" style="rounded=0;whiteSpace=wrap;html=1;" vertex="1" parent="Bn2o-F2bhLCTl_N0Lpy1-5">
          <mxGeometry x="1286.3157894736842" y="178.5" width="296.84210526315786" height="153" as="geometry" />
        </mxCell>
        <mxCell id="Bn2o-F2bhLCTl_N0Lpy1-24" style="edgeStyle=orthogonalEdgeStyle;rounded=0;orthogonalLoop=1;jettySize=auto;html=1;" edge="1" parent="1" source="Bn2o-F2bhLCTl_N0Lpy1-11" target="Bn2o-F2bhLCTl_N0Lpy1-4">
          <mxGeometry relative="1" as="geometry" />
        </mxCell>
        <mxCell id="Bn2o-F2bhLCTl_N0Lpy1-25" style="edgeStyle=orthogonalEdgeStyle;rounded=0;orthogonalLoop=1;jettySize=auto;html=1;" edge="1" parent="1" source="Bn2o-F2bhLCTl_N0Lpy1-11" target="Bn2o-F2bhLCTl_N0Lpy1-18">
          <mxGeometry relative="1" as="geometry" />
        </mxCell>
        <mxCell id="Bn2o-F2bhLCTl_N0Lpy1-11" value="IDE (Project)" style="swimlane;horizontal=0;whiteSpace=wrap;html=1;" vertex="1" parent="1">
          <mxGeometry x="40" y="640" width="841.05" height="440" as="geometry" />
        </mxCell>
        <mxCell id="Bn2o-F2bhLCTl_N0Lpy1-39" style="edgeStyle=orthogonalEdgeStyle;rounded=0;orthogonalLoop=1;jettySize=auto;html=1;" edge="1" parent="Bn2o-F2bhLCTl_N0Lpy1-11" source="Bn2o-F2bhLCTl_N0Lpy1-1" target="Bn2o-F2bhLCTl_N0Lpy1-28">
          <mxGeometry relative="1" as="geometry" />
        </mxCell>
        <mxCell id="Bn2o-F2bhLCTl_N0Lpy1-1" value="VFS (Virtual File System)" style="rounded=0;whiteSpace=wrap;html=1;" vertex="1" parent="Bn2o-F2bhLCTl_N0Lpy1-11">
          <mxGeometry x="480" y="360" width="320" height="40" as="geometry" />
        </mxCell>
        <mxCell id="Bn2o-F2bhLCTl_N0Lpy1-28" value="Language Service" style="swimlane;whiteSpace=wrap;html=1;" vertex="1" parent="Bn2o-F2bhLCTl_N0Lpy1-11">
          <mxGeometry x="480" y="40" width="320" height="280" as="geometry" />
        </mxCell>
        <mxCell id="Bn2o-F2bhLCTl_N0Lpy1-31" value="CENGINE (IDE Package)" style="swimlane;fontStyle=0;childLayout=stackLayout;horizontal=1;startSize=30;horizontalStack=0;resizeParent=1;resizeParentMax=0;resizeLast=0;collapsible=1;marginBottom=0;whiteSpace=wrap;html=1;" vertex="1" parent="Bn2o-F2bhLCTl_N0Lpy1-11">
          <mxGeometry x="80" y="40" width="240" height="210" as="geometry" />
        </mxCell>
        <mxCell id="Bn2o-F2bhLCTl_N0Lpy1-32" value="lib: ast (Abstract Syntax Tree)" style="text;strokeColor=none;fillColor=none;align=left;verticalAlign=middle;spacingLeft=4;spacingRight=4;overflow=hidden;points=[[0,0.5],[1,0.5]];portConstraint=eastwest;rotatable=0;whiteSpace=wrap;html=1;" vertex="1" parent="Bn2o-F2bhLCTl_N0Lpy1-31">
          <mxGeometry y="30" width="240" height="30" as="geometry" />
        </mxCell>
        <mxCell id="Bn2o-F2bhLCTl_N0Lpy1-33" value="lib: editor (Editor Tooling)" style="text;strokeColor=none;fillColor=none;align=left;verticalAlign=middle;spacingLeft=4;spacingRight=4;overflow=hidden;points=[[0,0.5],[1,0.5]];portConstraint=eastwest;rotatable=0;whiteSpace=wrap;html=1;" vertex="1" parent="Bn2o-F2bhLCTl_N0Lpy1-31">
          <mxGeometry y="60" width="240" height="30" as="geometry" />
        </mxCell>
        <mxCell id="Bn2o-F2bhLCTl_N0Lpy1-35" value="lib: lang (Implemented Languages)" style="text;strokeColor=none;fillColor=none;align=left;verticalAlign=middle;spacingLeft=4;spacingRight=4;overflow=hidden;points=[[0,0.5],[1,0.5]];portConstraint=eastwest;rotatable=0;whiteSpace=wrap;html=1;" vertex="1" parent="Bn2o-F2bhLCTl_N0Lpy1-31">
          <mxGeometry y="90" width="240" height="30" as="geometry" />
        </mxCell>
        <mxCell id="Bn2o-F2bhLCTl_N0Lpy1-37" value="lib: project (Project)" style="text;strokeColor=none;fillColor=none;align=left;verticalAlign=middle;spacingLeft=4;spacingRight=4;overflow=hidden;points=[[0,0.5],[1,0.5]];portConstraint=eastwest;rotatable=0;whiteSpace=wrap;html=1;" vertex="1" parent="Bn2o-F2bhLCTl_N0Lpy1-31">
          <mxGeometry y="120" width="240" height="30" as="geometry" />
        </mxCell>
        <mxCell id="Bn2o-F2bhLCTl_N0Lpy1-38" value="lib: psi (Program Structure Interface)" style="text;strokeColor=none;fillColor=none;align=left;verticalAlign=middle;spacingLeft=4;spacingRight=4;overflow=hidden;points=[[0,0.5],[1,0.5]];portConstraint=eastwest;rotatable=0;whiteSpace=wrap;html=1;" vertex="1" parent="Bn2o-F2bhLCTl_N0Lpy1-31">
          <mxGeometry y="150" width="240" height="30" as="geometry" />
        </mxCell>
        <mxCell id="Bn2o-F2bhLCTl_N0Lpy1-34" value="lib: vfs (Virtual File System)" style="text;strokeColor=none;fillColor=none;align=left;verticalAlign=middle;spacingLeft=4;spacingRight=4;overflow=hidden;points=[[0,0.5],[1,0.5]];portConstraint=eastwest;rotatable=0;whiteSpace=wrap;html=1;" vertex="1" parent="Bn2o-F2bhLCTl_N0Lpy1-31">
          <mxGeometry y="180" width="240" height="30" as="geometry" />
        </mxCell>
        <mxCell id="Bn2o-F2bhLCTl_N0Lpy1-23" style="edgeStyle=orthogonalEdgeStyle;rounded=0;orthogonalLoop=1;jettySize=auto;html=1;" edge="1" parent="1" source="Bn2o-F2bhLCTl_N0Lpy1-18" target="Bn2o-F2bhLCTl_N0Lpy1-6">
          <mxGeometry relative="1" as="geometry">
            <Array as="points">
              <mxPoint x="1474.7368421052631" y="448" />
              <mxPoint x="1474.7368421052631" y="448" />
            </Array>
          </mxGeometry>
        </mxCell>
        <mxCell id="Bn2o-F2bhLCTl_N0Lpy1-18" value="Emulator" style="swimlane;horizontal=0;whiteSpace=wrap;html=1;" vertex="1" parent="1">
          <mxGeometry x="1078.95" y="640" width="841.05" height="440" as="geometry" />
        </mxCell>
        <mxCell id="Bn2o-F2bhLCTl_N0Lpy1-22" value="Architecture" style="rounded=0;whiteSpace=wrap;html=1;" vertex="1" parent="Bn2o-F2bhLCTl_N0Lpy1-18">
          <mxGeometry x="560" y="40" width="240" height="200" as="geometry" />
        </mxCell>
        <mxCell id="Bn2o-F2bhLCTl_N0Lpy1-40" value="CENGINE (IDE Package)" style="swimlane;fontStyle=0;childLayout=stackLayout;horizontal=1;startSize=30;horizontalStack=0;resizeParent=1;resizeParentMax=0;resizeLast=0;collapsible=1;marginBottom=0;whiteSpace=wrap;html=1;" vertex="1" parent="Bn2o-F2bhLCTl_N0Lpy1-18">
          <mxGeometry x="81.04999999999995" y="40" width="240" height="210" as="geometry" />
        </mxCell>
        <mxCell id="Bn2o-F2bhLCTl_N0Lpy1-41" value="lib: ast (Abstract Syntax Tree)" style="text;strokeColor=none;fillColor=none;align=left;verticalAlign=middle;spacingLeft=4;spacingRight=4;overflow=hidden;points=[[0,0.5],[1,0.5]];portConstraint=eastwest;rotatable=0;whiteSpace=wrap;html=1;" vertex="1" parent="Bn2o-F2bhLCTl_N0Lpy1-40">
          <mxGeometry y="30" width="240" height="30" as="geometry" />
        </mxCell>
        <mxCell id="Bn2o-F2bhLCTl_N0Lpy1-42" value="lib: editor (Editor Tooling)" style="text;strokeColor=none;fillColor=none;align=left;verticalAlign=middle;spacingLeft=4;spacingRight=4;overflow=hidden;points=[[0,0.5],[1,0.5]];portConstraint=eastwest;rotatable=0;whiteSpace=wrap;html=1;" vertex="1" parent="Bn2o-F2bhLCTl_N0Lpy1-40">
          <mxGeometry y="60" width="240" height="30" as="geometry" />
        </mxCell>
        <mxCell id="Bn2o-F2bhLCTl_N0Lpy1-43" value="lib: lang (Implemented Languages)" style="text;strokeColor=none;fillColor=none;align=left;verticalAlign=middle;spacingLeft=4;spacingRight=4;overflow=hidden;points=[[0,0.5],[1,0.5]];portConstraint=eastwest;rotatable=0;whiteSpace=wrap;html=1;" vertex="1" parent="Bn2o-F2bhLCTl_N0Lpy1-40">
          <mxGeometry y="90" width="240" height="30" as="geometry" />
        </mxCell>
        <mxCell id="Bn2o-F2bhLCTl_N0Lpy1-44" value="lib: project (Project)" style="text;strokeColor=none;fillColor=none;align=left;verticalAlign=middle;spacingLeft=4;spacingRight=4;overflow=hidden;points=[[0,0.5],[1,0.5]];portConstraint=eastwest;rotatable=0;whiteSpace=wrap;html=1;" vertex="1" parent="Bn2o-F2bhLCTl_N0Lpy1-40">
          <mxGeometry y="120" width="240" height="30" as="geometry" />
        </mxCell>
        <mxCell id="Bn2o-F2bhLCTl_N0Lpy1-45" value="lib: psi (Program Structure Interface)" style="text;strokeColor=none;fillColor=none;align=left;verticalAlign=middle;spacingLeft=4;spacingRight=4;overflow=hidden;points=[[0,0.5],[1,0.5]];portConstraint=eastwest;rotatable=0;whiteSpace=wrap;html=1;" vertex="1" parent="Bn2o-F2bhLCTl_N0Lpy1-40">
          <mxGeometry y="150" width="240" height="30" as="geometry" />
        </mxCell>
        <mxCell id="Bn2o-F2bhLCTl_N0Lpy1-46" value="lib: vfs (Virtual File System)" style="text;strokeColor=none;fillColor=none;align=left;verticalAlign=middle;spacingLeft=4;spacingRight=4;overflow=hidden;points=[[0,0.5],[1,0.5]];portConstraint=eastwest;rotatable=0;whiteSpace=wrap;html=1;" vertex="1" parent="Bn2o-F2bhLCTl_N0Lpy1-40">
          <mxGeometry y="180" width="240" height="30" as="geometry" />
        </mxCell>
      </root>
    </mxGraphModel>
  </diagram>
</mxfile>
